<svg width="30" height="30" viewBox="0 0 30 30" fill="none" xmlns="http://www.w3.org/2000/svg">
<path d="M0.00150299 16.5H18.8227L16.8678 18.435C16.5924 18.7167 16.439 19.095 16.4407 19.4885C16.4423 19.8819 16.5989 20.259 16.8766 20.5383C17.1543 20.8177 17.531 20.9771 17.9254 20.9821C18.3198 20.9871 18.7004 20.8373 18.9851 20.565L23.531 16.065C23.6719 15.9256 23.7838 15.7597 23.8601 15.5769C23.9365 15.3941 23.9758 15.198 23.9758 15C23.9758 14.802 23.9365 14.6059 23.8601 14.4231C23.7838 14.2403 23.6719 14.0744 23.531 13.935L18.9851 9.43501C18.7004 9.16273 18.3198 9.01294 17.9254 9.01793C17.531 9.02291 17.1543 9.18227 16.8766 9.46165C16.5989 9.74104 16.4423 10.1181 16.4407 10.5115C16.439 10.905 16.5924 11.2833 16.8678 11.565L18.8242 13.5H0C0.385792 9.67105 2.23212 6.13646 5.15713 3.62725C8.08214 1.11804 11.8621 -0.173829 15.7151 0.0188248C19.5682 0.211478 23.1997 1.87392 25.8585 4.66232C28.5173 7.45071 30 11.1518 30 15C30 18.8482 28.5173 22.5493 25.8585 25.3377C23.1997 28.1261 19.5682 29.7885 15.7151 29.9812C11.8621 30.1738 8.08214 28.882 5.15713 26.3728C2.23212 23.8635 0.385792 20.3289 0 16.5H0.00150299Z" fill="#3575BB"/>
</svg>
